<svg width="333" height="74" viewBox="0 0 333 74" fill="none" xmlns="http://www.w3.org/2000/svg">
<path d="M62.4375 36.2291H62.0058C60.2329 28.305 53.1567 22.3542 44.7083 22.3542H39.3125V20.3808C41.995 19.425 43.9375 16.8812 43.9375 13.875C43.9375 10.0517 40.8233 6.93749 37 6.93749C33.1767 6.93749 30.0625 10.0517 30.0625 13.875C30.0625 16.8812 32.005 19.425 34.6875 20.3808V22.3542H29.2917C20.8433 22.3542 13.7671 28.305 11.9942 36.2291H11.5625C9.01875 36.2291 6.9375 38.3104 6.9375 40.8541V45.4791C6.9375 48.0229 9.01875 50.1041 11.5625 50.1041H12.4104C14.2296 55.7775 18.8237 60.1867 24.5896 61.79C24.1579 62.6996 23.8958 63.6862 23.8958 64.75C23.8958 66.0296 24.9287 67.0625 26.2083 67.0625H47.7917C49.0712 67.0625 50.1042 66.0296 50.1042 64.75C50.1042 63.6862 49.8421 62.6842 49.4104 61.79C55.1762 60.2021 59.7704 55.7775 61.5896 50.1041H62.4375C64.9812 50.1041 67.0625 48.0229 67.0625 45.4791V40.8541C67.0625 38.3104 64.9812 36.2291 62.4375 36.2291ZM37 11.5625C38.2796 11.5625 39.3125 12.5954 39.3125 13.875C39.3125 15.1546 38.2796 16.1875 37 16.1875C35.7204 16.1875 34.6875 15.1546 34.6875 13.875C34.6875 12.5954 35.7204 11.5625 37 11.5625ZM44.7083 57.8125H29.2917C22.0612 57.8125 16.1875 51.9387 16.1875 44.7083V40.0833C16.1875 32.8529 22.0612 26.9792 29.2917 26.9792H44.7083C51.9387 26.9792 57.8125 32.8529 57.8125 40.0833V44.7083C57.8125 51.9387 51.9387 57.8125 44.7083 57.8125Z" fill="black"/>
<path d="M28.5208 33.1458C25.9771 33.1458 23.8958 35.2271 23.8958 37.7708V42.3958C23.8958 44.9396 25.9771 47.0208 28.5208 47.0208C31.0646 47.0208 33.1458 44.9396 33.1458 42.3958V37.7708C33.1458 35.2271 31.0646 33.1458 28.5208 33.1458Z" fill="black"/>
<path d="M45.4792 33.1458C42.9354 33.1458 40.8542 35.2271 40.8542 37.7708V42.3958C40.8542 44.9396 42.9354 47.0208 45.4792 47.0208C48.0229 47.0208 50.1042 44.9396 50.1042 42.3958V37.7708C50.1042 35.2271 48.0229 33.1458 45.4792 33.1458Z" fill="black"/>
<path d="M20.8587 11.4392L25.4838 12.9808C25.7304 13.0579 25.9771 13.1042 26.2083 13.1042C27.1796 13.1042 28.0737 12.4875 28.3975 11.5162C28.7983 10.2983 28.1508 8.9879 26.9329 8.58707L22.3079 7.0454C21.1054 6.64457 19.795 7.29207 19.3787 8.50999C18.9625 9.7279 19.6254 11.0383 20.8433 11.4392H20.8587Z" fill="black"/>
<path d="M21.5833 20.8125C21.83 20.8125 22.0767 20.7817 22.3079 20.6892L26.9329 19.1475C28.1508 18.7467 28.7983 17.4362 28.3975 16.2183C27.9967 15.0004 26.6863 14.3529 25.4683 14.7537L20.8433 16.2954C19.6254 16.6962 18.9779 18.0067 19.3787 19.2246C19.7025 20.1958 20.5967 20.8125 21.5679 20.8125H21.5833Z" fill="black"/>
<path d="M47.7917 13.1042C48.0383 13.1042 48.285 13.0733 48.5162 12.9808L53.1413 11.4392C54.3592 11.0383 55.0067 9.7279 54.6058 8.50999C54.205 7.29207 52.8946 6.64457 51.6767 7.0454L47.0517 8.58707C45.8337 8.9879 45.1862 10.2983 45.5871 11.5162C45.9108 12.4875 46.805 13.1042 47.7762 13.1042H47.7917Z" fill="black"/>
<path d="M47.0671 19.1475L51.6921 20.6892C51.9387 20.7662 52.1854 20.8125 52.4167 20.8125C53.3879 20.8125 54.2821 20.1958 54.6058 19.2246C55.0067 18.0067 54.3592 16.6962 53.1413 16.2954L48.5162 14.7537C47.3137 14.3529 45.9879 15.0004 45.5871 16.2183C45.1862 17.4362 45.8337 18.7467 47.0517 19.1475H47.0671Z" fill="black"/>
<path d="M85.7973 52.384C84.0053 52.384 82.2879 52.1493 80.6453 51.68C79.0026 51.1893 77.6799 50.56 76.6773 49.792L78.4373 45.888C79.3973 46.5707 80.5279 47.136 81.8293 47.584C83.1519 48.0107 84.4853 48.224 85.8293 48.224C86.8533 48.224 87.6746 48.128 88.2933 47.936C88.9333 47.7227 89.4026 47.4347 89.7013 47.072C89.9999 46.7093 90.1493 46.2933 90.1493 45.824C90.1493 45.2267 89.9146 44.7573 89.4453 44.416C88.9759 44.0533 88.3573 43.7653 87.5893 43.552C86.8213 43.3173 85.9679 43.104 85.0293 42.912C84.1119 42.6987 83.1839 42.4427 82.2453 42.144C81.3279 41.8453 80.4853 41.4613 79.7173 40.992C78.9493 40.5227 78.3199 39.904 77.8293 39.136C77.3599 38.368 77.1253 37.3867 77.1253 36.192C77.1253 34.912 77.4666 33.7493 78.1493 32.704C78.8533 31.6373 79.8986 30.7947 81.2853 30.176C82.6933 29.536 84.4533 29.216 86.5653 29.216C87.9733 29.216 89.3599 29.3867 90.7253 29.728C92.0906 30.048 93.2959 30.5387 94.3413 31.2L92.7413 35.136C91.6959 34.5387 90.6506 34.1013 89.6053 33.824C88.5599 33.5253 87.5359 33.376 86.5333 33.376C85.5306 33.376 84.7093 33.4933 84.0693 33.728C83.4293 33.9627 82.9706 34.272 82.6933 34.656C82.4159 35.0187 82.2773 35.4453 82.2773 35.936C82.2773 36.512 82.5119 36.9813 82.9813 37.344C83.4506 37.6853 84.0693 37.9627 84.8373 38.176C85.6053 38.3893 86.4479 38.6027 87.3653 38.816C88.3039 39.0293 89.2319 39.2747 90.1493 39.552C91.0879 39.8293 91.9413 40.2027 92.7093 40.672C93.4773 41.1413 94.0959 41.76 94.5653 42.528C95.0559 43.296 95.3013 44.2667 95.3013 45.44C95.3013 46.6987 94.9493 47.8507 94.2453 48.896C93.5413 49.9413 92.4853 50.784 91.0773 51.424C89.6906 52.064 87.9306 52.384 85.7973 52.384ZM105.532 52.256C103.505 52.256 101.926 51.744 100.796 50.72C99.6648 49.6747 99.0995 48.128 99.0995 46.08V30.976H104.092V46.016C104.092 46.7413 104.284 47.3067 104.668 47.712C105.052 48.096 105.574 48.288 106.236 48.288C107.025 48.288 107.697 48.0747 108.252 47.648L109.596 51.168C109.084 51.5307 108.465 51.808 107.74 52C107.036 52.1707 106.3 52.256 105.532 52.256ZM96.4435 39.008V35.168H108.38V39.008H96.4435ZM119.662 52.256C118.232 52.256 116.952 51.9787 115.822 51.424C114.712 50.8693 113.848 50.0267 113.23 48.896C112.611 47.744 112.302 46.2827 112.302 44.512V34.784H117.294V43.776C117.294 45.2053 117.592 46.2613 118.19 46.944C118.808 47.6053 119.672 47.936 120.782 47.936C121.55 47.936 122.232 47.776 122.83 47.456C123.427 47.1147 123.896 46.6027 124.238 45.92C124.579 45.216 124.75 44.3413 124.75 43.296V34.784H129.742V52H125.006V47.264L125.87 48.64C125.294 49.8347 124.44 50.7413 123.31 51.36C122.2 51.9573 120.984 52.256 119.662 52.256ZM141.759 52.256C140.137 52.256 138.676 51.8933 137.375 51.168C136.073 50.4213 135.039 49.3867 134.271 48.064C133.524 46.7413 133.151 45.184 133.151 43.392C133.151 41.5787 133.524 40.0107 134.271 38.688C135.039 37.3653 136.073 36.3413 137.375 35.616C138.676 34.8907 140.137 34.528 141.759 34.528C143.209 34.528 144.479 34.848 145.567 35.488C146.655 36.128 147.497 37.0987 148.095 38.4C148.692 39.7013 148.991 41.3653 148.991 43.392C148.991 45.3973 148.703 47.0613 148.127 48.384C147.551 49.6853 146.719 50.656 145.631 51.296C144.564 51.936 143.273 52.256 141.759 52.256ZM142.623 48.16C143.433 48.16 144.169 47.968 144.831 47.584C145.492 47.2 146.015 46.656 146.399 45.952C146.804 45.2267 147.007 44.3733 147.007 43.392C147.007 42.3893 146.804 41.536 146.399 40.832C146.015 40.128 145.492 39.584 144.831 39.2C144.169 38.816 143.433 38.624 142.623 38.624C141.791 38.624 141.044 38.816 140.383 39.2C139.721 39.584 139.188 40.128 138.783 40.832C138.399 41.536 138.207 42.3893 138.207 43.392C138.207 44.3733 138.399 45.2267 138.783 45.952C139.188 46.656 139.721 47.2 140.383 47.584C141.044 47.968 141.791 48.16 142.623 48.16ZM147.135 52V48.48L147.231 43.36L146.911 38.272V28.256H151.903V52H147.135ZM158.699 58.464C157.803 58.464 156.917 58.3253 156.043 58.048C155.168 57.7707 154.453 57.3867 153.899 56.896L155.723 53.344C156.107 53.6853 156.544 53.952 157.035 54.144C157.547 54.336 158.048 54.432 158.539 54.432C159.243 54.432 159.797 54.2613 160.203 53.92C160.629 53.6 161.013 53.056 161.355 52.288L162.251 50.176L162.635 49.632L168.811 34.784H173.611L165.835 53.056C165.28 54.4427 164.64 55.5307 163.915 56.32C163.211 57.1093 162.421 57.664 161.547 57.984C160.693 58.304 159.744 58.464 158.699 58.464ZM161.643 52.672L153.963 34.784H159.115L165.067 49.184L161.643 52.672ZM176 52V29.6H186.944C189.76 29.6 191.872 30.1333 193.28 31.2C194.709 32.2667 195.424 33.6747 195.424 35.424C195.424 36.5973 195.136 37.6213 194.56 38.496C193.984 39.3493 193.194 40.0107 192.192 40.48C191.189 40.9493 190.037 41.184 188.736 41.184L189.344 39.872C190.752 39.872 192 40.1067 193.088 40.576C194.176 41.024 195.018 41.696 195.616 42.592C196.234 43.488 196.544 44.5867 196.544 45.888C196.544 47.808 195.786 49.312 194.272 50.4C192.757 51.4667 190.528 52 187.584 52H176ZM181.152 48.096H187.2C188.544 48.096 189.557 47.8827 190.24 47.456C190.944 47.008 191.296 46.304 191.296 45.344C191.296 44.4053 190.944 43.712 190.24 43.264C189.557 42.7947 188.544 42.56 187.2 42.56H180.768V38.784H186.304C187.562 38.784 188.522 38.5707 189.184 38.144C189.866 37.696 190.208 37.024 190.208 36.128C190.208 35.2533 189.866 34.6027 189.184 34.176C188.522 33.728 187.562 33.504 186.304 33.504H181.152V48.096ZM207.381 52.256C205.951 52.256 204.671 51.9787 203.541 51.424C202.431 50.8693 201.567 50.0267 200.949 48.896C200.33 47.744 200.021 46.2827 200.021 44.512V34.784H205.013V43.776C205.013 45.2053 205.311 46.2613 205.909 46.944C206.527 47.6053 207.391 47.936 208.501 47.936C209.269 47.936 209.951 47.776 210.549 47.456C211.146 47.1147 211.615 46.6027 211.957 45.92C212.298 45.216 212.469 44.3413 212.469 43.296V34.784H217.461V52H212.725V47.264L213.589 48.64C213.013 49.8347 212.159 50.7413 211.029 51.36C209.919 51.9573 208.703 52.256 207.381 52.256ZM229.477 52.256C227.856 52.256 226.395 51.8933 225.093 51.168C223.792 50.4213 222.757 49.3867 221.989 48.064C221.243 46.7413 220.869 45.184 220.869 43.392C220.869 41.5787 221.243 40.0107 221.989 38.688C222.757 37.3653 223.792 36.3413 225.093 35.616C226.395 34.8907 227.856 34.528 229.477 34.528C230.928 34.528 232.197 34.848 233.285 35.488C234.373 36.128 235.216 37.0987 235.813 38.4C236.411 39.7013 236.709 41.3653 236.709 43.392C236.709 45.3973 236.421 47.0613 235.845 48.384C235.269 49.6853 234.437 50.656 233.349 51.296C232.283 51.936 230.992 52.256 229.477 52.256ZM230.341 48.16C231.152 48.16 231.888 47.968 232.549 47.584C233.211 47.2 233.733 46.656 234.117 45.952C234.523 45.2267 234.725 44.3733 234.725 43.392C234.725 42.3893 234.523 41.536 234.117 40.832C233.733 40.128 233.211 39.584 232.549 39.2C231.888 38.816 231.152 38.624 230.341 38.624C229.509 38.624 228.763 38.816 228.101 39.2C227.44 39.584 226.907 40.128 226.501 40.832C226.117 41.536 225.925 42.3893 225.925 43.392C225.925 44.3733 226.117 45.2267 226.501 45.952C226.907 46.656 227.44 47.2 228.101 47.584C228.763 47.968 229.509 48.16 230.341 48.16ZM234.853 52V48.48L234.949 43.36L234.629 38.272V28.256H239.621V52H234.853ZM251.634 52.256C250.012 52.256 248.551 51.8933 247.25 51.168C245.948 50.4213 244.914 49.3867 244.146 48.064C243.399 46.7413 243.026 45.184 243.026 43.392C243.026 41.5787 243.399 40.0107 244.146 38.688C244.914 37.3653 245.948 36.3413 247.25 35.616C248.551 34.8907 250.012 34.528 251.634 34.528C253.084 34.528 254.354 34.848 255.442 35.488C256.53 36.128 257.372 37.0987 257.97 38.4C258.567 39.7013 258.866 41.3653 258.866 43.392C258.866 45.3973 258.578 47.0613 258.002 48.384C257.426 49.6853 256.594 50.656 255.506 51.296C254.439 51.936 253.148 52.256 251.634 52.256ZM252.498 48.16C253.308 48.16 254.044 47.968 254.706 47.584C255.367 47.2 255.89 46.656 256.274 45.952C256.679 45.2267 256.882 44.3733 256.882 43.392C256.882 42.3893 256.679 41.536 256.274 40.832C255.89 40.128 255.367 39.584 254.706 39.2C254.044 38.816 253.308 38.624 252.498 38.624C251.666 38.624 250.919 38.816 250.258 39.2C249.596 39.584 249.063 40.128 248.658 40.832C248.274 41.536 248.082 42.3893 248.082 43.392C248.082 44.3733 248.274 45.2267 248.658 45.952C249.063 46.656 249.596 47.2 250.258 47.584C250.919 47.968 251.666 48.16 252.498 48.16ZM257.01 52V48.48L257.106 43.36L256.786 38.272V28.256H261.778V52H257.01ZM268.574 58.464C267.678 58.464 266.792 58.3253 265.918 58.048C265.043 57.7707 264.328 57.3867 263.774 56.896L265.598 53.344C265.982 53.6853 266.419 53.952 266.91 54.144C267.422 54.336 267.923 54.432 268.414 54.432C269.118 54.432 269.672 54.2613 270.078 53.92C270.504 53.6 270.888 53.056 271.23 52.288L272.126 50.176L272.51 49.632L278.686 34.784H283.486L275.71 53.056C275.155 54.4427 274.515 55.5307 273.79 56.32C273.086 57.1093 272.296 57.664 271.422 57.984C270.568 58.304 269.619 58.464 268.574 58.464ZM271.518 52.672L263.838 34.784H268.99L274.942 49.184L271.518 52.672Z" fill="black"/>
</svg>
